<?xml version="1.0" standalone="no"?>
<!DOCTYPE svg PUBLIC "-//W3C//DTD SVG 20010904//EN"
 "http://www.w3.org/TR/2001/REC-SVG-20010904/DTD/svg10.dtd">
<svg version="1.0" xmlns="http://www.w3.org/2000/svg"
 width="127.000000pt" height="127.000000pt" viewBox="0 0 127.000000 127.000000"
 preserveAspectRatio="xMidYMid meet">
<metadata>
Created by potrace 1.14, written by Peter Selinger 2001-2017
</metadata>
<g transform="translate(0.000000,127.000000) scale(0.100000,-0.100000)"
fill="#000000" stroke="none">
<path d="M393 1207 c3 -29 13 -69 23 -89 l18 -38 75 -1 c42 0 94 -3 116 -6 22
-3 48 -6 58 -6 21 -2 22 -20 2 -37 -9 -7 -13 -15 -10 -18 3 -3 0 -11 -7 -19
-15 -18 -77 -132 -85 -156 -8 -24 -25 -27 -231 -31 -101 -2 -185 -6 -188 -9
-3 -3 -12 -3 -20 0 -11 4 -14 -11 -14 -77 l0 -83 82 7 c46 4 99 8 118 11 111
12 161 15 157 8 -170 -295 -317 -579 -317 -610 0 -28 4 -31 34 -35 39 -4 23
-32 191 317 162 338 156 327 191 330 38 4 105 13 179 27 107 19 115 19 113 11
-1 -4 2 -33 7 -63 5 -30 9 -62 10 -70 2 -21 17 -122 21 -142 2 -10 6 -28 9
-39 7 -33 13 -34 26 -6 9 20 9 45 -1 109 -7 46 -14 92 -16 103 -7 53 -16 101
-19 105 -8 13 13 28 61 44 28 9 69 32 90 50 35 30 39 39 42 84 5 89 -29 128
-173 197 -44 22 -81 40 -83 40 -1 1 -7 28 -12 61 -16 91 -18 93 -42 54 -12
-19 -27 -45 -34 -57 l-14 -22 -67 24 c-63 22 -153 49 -199 60 -11 2 -36 9 -58
14 l-38 9 5 -51z m413 -64 c-10 -10 -19 5 -10 18 6 11 8 11 12 0 2 -7 1 -15
-2 -18z m-12 -129 c20 -3 36 -9 37 -13 0 -3 2 -15 5 -26 2 -11 6 -42 10 -70 3
-27 7 -56 9 -62 3 -7 3 -13 2 -13 -3 -1 -100 -9 -158 -14 -25 -2 -51 -1 -56 3
-16 9 84 214 102 207 7 -2 30 -8 49 -12z m178 -56 c24 -11 53 -29 65 -41 21
-19 22 -21 5 -32 -27 -19 -121 -47 -136 -42 -7 3 -16 25 -20 50 -4 24 -9 56
-12 71 -4 26 -3 27 25 21 17 -3 49 -16 73 -27z"/>
</g>
</svg>
